<svg xmlns="http://www.w3.org/2000/svg" width="27.671" height="19.822" viewBox="0 0 27.671 19.822"><g transform="translate(0.148 0.145)"><path d="M301.351,564.146a2.606,2.606,0,1,0,.884,1.957,2.606,2.606,0,0,0-.884-1.957Zm-1.725,3.587a1.631,1.631,0,1,1,1.631-1.631A1.631,1.631,0,0,1,299.626,567.733Z" transform="translate(-297.062 -551.392)" fill="#fff"/><path d="M334.214,467.04v-5.3a3.929,3.929,0,0,1-1.3,0v5.3A3.93,3.93,0,0,1,334.214,467.04Z" transform="translate(-330.998 -455.801)" fill="#fff"/><path d="M684.371,570.127a2.606,2.606,0,1,0,.884,1.957,2.606,2.606,0,0,0-.884-1.957Zm-1.725,3.587a1.631,1.631,0,1,1,1.631-1.631A1.63,1.63,0,0,1,682.646,573.714Z" transform="translate(-657.735 -557.046)" fill="#fff"/><path d="M715.93,461.74v5.626a3.712,3.712,0,0,1,1.3,0V461.74A3.712,3.712,0,0,1,715.93,461.74Z" transform="translate(-691.671 -455.79)" fill="#fff"/><path d="M396.193,612.7a4.182,4.182,0,0,1-.193.625l4.719,1.057a4.3,4.3,0,0,1,.285-1.273l-4.719-1.057A4.244,4.244,0,0,1,396.193,612.7Z" transform="translate(-390.272 -597.302)" fill="#fff"/><path d="M588.991,611.36l-4.719,1.057a4.3,4.3,0,0,1,.285,1.273l4.719-1.057a4.3,4.3,0,0,1-.285-1.273Z" transform="translate(-567.565 -596.649)" fill="#fff"/><path d="M316.357,370.258l2.879,2.787a2.189,2.189,0,0,1,.959-.99l-2.985-2.888,3.184-4.085.077.045a2.757,2.757,0,1,0-1.053-1.035l-3.2,4.116-3.24-3.134a2.757,2.757,0,1,0-4.45-.087l-3.311,3.2-3.123-4.011a2.817,2.817,0,1,0-1.005.949l3.132,4.023-2.741,2.653a2.187,2.187,0,0,1,.958.992l2.636-2.557,3.716,4.772a2.756,2.756,0,1,0,3.922-.067Zm5.449-9.269a1.723,1.723,0,1,1-1.721,1.72A1.723,1.723,0,0,1,321.806,360.988Zm-22.051,3.446a1.723,1.723,0,1,1,1.723-1.723A1.723,1.723,0,0,1,299.755,364.434Zm11.026-2.757a1.719,1.719,0,1,1-1.22.5A1.719,1.719,0,0,1,310.781,361.677Zm-1.2,4.2a2.763,2.763,0,0,0,2.3.047l3.482,3.367-3.862,4.96-.116-.03a2.739,2.739,0,0,0-1.419.058l-3.9-5Zm2.884,11.411a1.717,1.717,0,1,1-.222-1.3,1.723,1.723,0,0,1,.222,1.3Z" transform="translate(-297.042 -359.995)" fill="#fff"/></g></svg>